# xmcd CD database file
#
# Track frame offsets:
#	150
#	23004
#	43418
#	64345
#	86269
#	106056
#	128643
#	149980
#	170646
#	188509
#	216352
#	238584
#	260514
#	282381
#
# Disc length: 4075 seconds
#
# Revision: 0
# Processed by: cddbd v1.5.1PL0 Copyright (c) Steve Scherf et al.
# Submitted via: CDex 1.51
#
DISCID=d20fe90e
DTITLE=Marc Anthony - From the beginning
DYEAR=2000
DGENRE=Salsa
TTITLE0=No Me Ames
TTITLE1=Si Tu No Te Fueras
TTITLE2=Necesito Amarte
TTITLE3=Hasta Que Te Conoci
TTITLE4=El Ultimo Beso
TTITLE5=Te Conozco Bien
TTITLE6=Nadie Como Ella
TTITLE7=Te Amare
TTITLE8=Hasta Ayer
TTITLE9=Y Hubo Alguien
TTITLE10=Contra La Corriente
TTITLE11=No Me Conoces
TTITLE12=No Sabes Como Duele
TTITLE13=Preciosa
EXTD=YEAR: 2000
EXTT0=
EXTT1=
EXTT2=
EXTT3=
EXTT4=
EXTT5=
EXTT6=
EXTT7=
EXTT8=
EXTT9=
EXTT10=
EXTT11=
EXTT12=
EXTT13=
PLAYORDER=
